<svg xmlns="http://www.w3.org/2000/svg" xmlns:xlink="http://www.w3.org/1999/xlink" viewBox="0 0 500 500"><defs><style>.cls-1{isolation:isolate;}.cls-2{font-size:91.01px;fill:#fff;font-family:Cambria-Bold, Cambria;font-weight:700;}.cls-3{fill:url(#Degradado_sin_nombre_8);}.cls-4{fill:url(#Degradado_sin_nombre_8-2);}.cls-5{fill:url(#Degradado_sin_nombre_8-3);}.cls-6{fill:url(#Degradado_sin_nombre_8-4);}.cls-7,.cls-8,.cls-9{mix-blend-mode:soft-light;}.cls-7{fill:url(#Degradado_sin_nombre_22);}.cls-8{fill:url(#Degradado_sin_nombre_22-2);}.cls-9{fill:url(#Degradado_sin_nombre_22-3);}.cls-10{fill:#47128d;opacity:0.2;mix-blend-mode:multiply;}</style><linearGradient id="Degradado_sin_nombre_8" x1="327.63" y1="158.7" x2="251.81" y2="247.49" gradientUnits="userSpaceOnUse"><stop offset="0" stop-color="#fb3d25"/><stop offset="1" stop-color="#f2cf3d"/></linearGradient><linearGradient id="Degradado_sin_nombre_8-2" x1="163.53" y1="227.94" x2="247.33" y2="146.13" xlink:href="#Degradado_sin_nombre_8"/><linearGradient id="Degradado_sin_nombre_8-3" x1="183.2" y1="264.35" x2="187.12" y2="200.58" xlink:href="#Degradado_sin_nombre_8"/><linearGradient id="Degradado_sin_nombre_8-4" x1="317.38" y1="270.81" x2="311.5" y2="183.01" xlink:href="#Degradado_sin_nombre_8"/><linearGradient id="Degradado_sin_nombre_22" x1="294.33" y1="152.9" x2="304.68" y2="134.19" gradientUnits="userSpaceOnUse"><stop offset="0" stop-color="#fbff25"/><stop offset="1" stop-color="#ec1d68"/></linearGradient><linearGradient id="Degradado_sin_nombre_22-2" x1="250.08" y1="185.77" x2="263.61" y2="165.87" xlink:href="#Degradado_sin_nombre_22"/><linearGradient id="Degradado_sin_nombre_22-3" x1="220.69" y1="236.93" x2="211.54" y2="213.05" xlink:href="#Degradado_sin_nombre_22"/></defs><g class="cls-1"><g id="OBJECTS"><text class="cls-2" transform="translate(0 360.63) scale(0.94 1)">DM THE DEV</text><polygon class="cls-3" points="226.15 230.06 212.03 215.94 212.03 215.94 199.91 203.82 199.97 223.68 226.15 249.86 309.65 166.36 309.65 267.8 323.65 267.8 323.65 132.56 226.15 230.06"/><polygon class="cls-4" points="279.28 165.21 259.49 165.21 259.49 165.22 259.49 165.21 226.2 198.5 176.59 148.9 176.59 267.8 190.59 267.8 190.59 182.7 226.2 218.3 266.71 177.79 266.71 177.79 279.28 165.21"/><path class="cls-5" d="M176.59,267.8s-3.25-45,14-85.1v85.1Z"/><path class="cls-6" d="M309.65,166.36s14,33,14,101.44h-14Z"/><polygon class="cls-7" points="226.15 230.06 323.65 146 323.65 132.56 226.15 230.06"/><polygon class="cls-8" points="226.2 198.5 279.28 165.21 259.49 165.21 226.2 198.5"/><polygon class="cls-9" points="199.91 203.82 226.15 249.86 226.15 230.06 199.91 203.82"/><path class="cls-10" d="M190.59,267.8h-14s-.24-20.48,14-41Z"/><path class="cls-10" d="M309.65,210.25V267.8h14S322.12,230.06,309.65,210.25Z"/></g></g></svg>